<mxfile host="app.diagrams.net" modified="2023-08-14T02:25:30.448Z" agent="Mozilla/5.0 (Windows NT 10.0; Win64; x64) AppleWebKit/537.36 (KHTML, like Gecko) Chrome/115.0.0.0 Safari/537.36" version="21.6.8" etag="V5KTyNCf01sImKbR8U0R" type="github">
  <diagram name="PÃ¡gina-1" id="93BJBYsZML0PrlqZNYA1">
    <mxGraphModel>
      <root>
        <mxCell id="0" />
        <mxCell id="1" parent="0" />
      </root>
    </mxGraphModel>
  </diagram>
</mxfile>
